<?xml version="1.0"?>
<svg xmlns="http://www.w3.org/2000/svg" xmlns:xlink="http://www.w3.org/1999/xlink" xmlns:svgjs="http://svgjs.com/svgjs" version="1.1" width="512" height="512" x="0" y="0" viewBox="0 0 512 512" style="enable-background:new 0 0 512 512" xml:space="preserve" class=""><g>
<g xmlns="http://www.w3.org/2000/svg">
	<g>
		<path d="M436,91c-8.284,0-15,6.716-15,15v300c0,8.284,6.716,15,15,15s15-6.716,15-15V106C451,97.716,444.284,91,436,91z" fill="#ffffff" data-original="#000000" style="" class=""/>
	</g>
</g>
<g xmlns="http://www.w3.org/2000/svg">
	<g>
		<path d="M496,141c-8.284,0-15,6.716-15,15v200c0,8.284,6.716,15,15,15s15-6.716,15-15V156C511,147.716,504.284,141,496,141z" fill="#ffffff" data-original="#000000" style="" class=""/>
	</g>
</g>
<g xmlns="http://www.w3.org/2000/svg">
	<g>
		<path d="M316,0H16C7.716,0,1,6.716,1,15v422c0,41.355,33.645,75,75,75h300c8.284,0,15-6.716,15-15V75C391,33.645,357.355,0,316,0z     M196,96c41.355,0,75,33.645,75,75s-33.645,75-75,75s-75-33.645-75-75S154.645,96,196,96z M308.169,409.771    C305.35,413.683,300.821,416,296,416H96c-4.821,0-9.35-2.317-12.169-6.229c-2.819-3.911-3.586-8.939-2.062-13.514l40-120    C123.812,270.132,129.544,266,136,266h120c6.456,0,12.188,4.132,14.23,10.257l40,120    C311.755,400.831,310.988,405.859,308.169,409.771z" fill="#ffffff" data-original="#000000" style="" class=""/>
	</g>
</g>
<g xmlns="http://www.w3.org/2000/svg">
</g>
<g xmlns="http://www.w3.org/2000/svg">
</g>
<g xmlns="http://www.w3.org/2000/svg">
</g>
<g xmlns="http://www.w3.org/2000/svg">
</g>
<g xmlns="http://www.w3.org/2000/svg">
</g>
<g xmlns="http://www.w3.org/2000/svg">
</g>
<g xmlns="http://www.w3.org/2000/svg">
</g>
<g xmlns="http://www.w3.org/2000/svg">
</g>
<g xmlns="http://www.w3.org/2000/svg">
</g>
<g xmlns="http://www.w3.org/2000/svg">
</g>
<g xmlns="http://www.w3.org/2000/svg">
</g>
<g xmlns="http://www.w3.org/2000/svg">
</g>
<g xmlns="http://www.w3.org/2000/svg">
</g>
<g xmlns="http://www.w3.org/2000/svg">
</g>
<g xmlns="http://www.w3.org/2000/svg">
</g>
</g></svg>
